HIERARCHY
ROOT SpineBase
{
  OFFSET 0.000000 0.000000 0.000000
  CHANNELS 6 Xposition Yposition Zposition Zrotation Xrotation Yrotation
  JOINT SpineMid
  {
    OFFSET 0.000000 33.001530 0.000000
    CHANNELS 3 Zrotation Xrotation Yrotation
    JOINT SpineShoulder
    {
      OFFSET -0.080763 24.284288 -0.818517
      CHANNELS 3 Zrotation Xrotation Yrotation
      JOINT Neck
      {
        OFFSET 0.001176 7.975829 -0.593450
        CHANNELS 3 Zrotation Xrotation Yrotation
        JOINT Head
        {
          OFFSET -2.392901 11.680089 7.149267
          CHANNELS 3 Zrotation Xrotation Yrotation
          End Site
          {
            OFFSET 0 0 0
          }
        }
      }
      JOINT ShoulderLeft
      {
        OFFSET -9.276507 0.978795 -19.456545
        CHANNELS 3 Zrotation Xrotation Yrotation
        JOINT ElbowLeft
        {
          OFFSET 11.963516 -17.424194 16.118715
          CHANNELS 3 Zrotation Xrotation Yrotation
          JOINT WristLeft
          {
            OFFSET 6.367649 -20.703740 15.929417
            CHANNELS 3 Zrotation Xrotation Yrotation
            JOINT HandLeft
            {
              OFFSET 2.687736 -11.356110 3.730446
              CHANNELS 3 Zrotation Xrotation Yrotation
              JOINT HandTipLeft
              {
                OFFSET 0.845855 0.810942 -0.242687
                CHANNELS 3 Zrotation Xrotation Yrotation
                End Site
                {
                  OFFSET 0 0 0
                }
              }
              JOINT ThumbLeft
              {
                OFFSET -0.330496 0.468240 -2.566227
                CHANNELS 3 Zrotation Xrotation Yrotation
                End Site
                {
                  OFFSET 0 0 0
                }
              }
            }
          }
        }
      }
      JOINT ShoulderRight
      {
        OFFSET -1.965179 -5.391421 -12.707354
        CHANNELS 3 Zrotation Xrotation Yrotation
        JOINT ElbowRight
        {
          OFFSET -3.451253 -26.887631 -8.955748
          CHANNELS 3 Zrotation Xrotation Yrotation
          JOINT WristRight
          {
            OFFSET -8.501315 -21.295974 -4.395707
            CHANNELS 3 Zrotation Xrotation Yrotation
            JOINT HandRight
            {
              OFFSET -1.141103 -7.507230 1.813628
              CHANNELS 3 Zrotation Xrotation Yrotation
              JOINT HandTipRight
              {
                OFFSET -2.571532 -5.884761 1.010213
                CHANNELS 3 Zrotation Xrotation Yrotation
                End Site
                {
                  OFFSET 0 0 0
                }
              }
              JOINT ThumbRight
              {
                OFFSET 2.214217 0.780032 2.190348
                CHANNELS 3 Zrotation Xrotation Yrotation
                End Site
                {
                  OFFSET 0 0 0
                }
              }
            }
          }
        }
      }
    }
  }
  JOINT HipLeft
  {
    OFFSET -4.301181 1.133153 0.575613
    CHANNELS 3 Zrotation Xrotation Yrotation
    JOINT KneeLeft
    {
      OFFSET 1.961510 -44.878116 -1.877903
      CHANNELS 3 Zrotation Xrotation Yrotation
      JOINT AnkleLeft
      {
        OFFSET -3.414925 -34.913218 -3.419292
        CHANNELS 3 Zrotation Xrotation Yrotation
        JOINT FootLeft
        {
          OFFSET 0.490764 -2.579335 -12.055865
          CHANNELS 3 Zrotation Xrotation Yrotation
          End Site
          {
            OFFSET 0 0 0
          }
        }
      }
    }
  }
  JOINT HipRight
  {
    OFFSET 3.550055 0.417777 -8.637820
    CHANNELS 3 Zrotation Xrotation Yrotation
    JOINT KneeRight
    {
      OFFSET -19.402896 -40.984221 -3.007556
      CHANNELS 3 Zrotation Xrotation Yrotation
      JOINT AnkleRight
      {
        OFFSET 3.206134 -35.382684 -5.588313
        CHANNELS 3 Zrotation Xrotation Yrotation
        JOINT FootRight
        {
          OFFSET -4.190786 -7.372046 -0.289102
          CHANNELS 3 Zrotation Xrotation Yrotation
          End Site
          {
            OFFSET 0 0 0
          }
        }
      }
    }
  }
}
MOTION
Frames: 9
Frame Time: 0.033333
24.842370 85.526342 295.778792 -0.000000 0.000000 49.563990 0.000000 -0.000000 -49.563990 -0.000000 0.000000 0.000000 -0.000000 0.000000 0.000000 0.000000 0.000000 0.000000 -0.000000 0.000000 0.000000 -0.000000 0.000000 0.000000 -0.000000 0.000000 0.000000 -0.000000 0.000000 0.000000 0.000000 0.000000 0.000000 0.000000 0.000000 0.000000 -0.000000 0.000000 0.000000 -0.000000 0.000000 0.000000 -0.000000 0.000000 0.000000 -0.000000 0.000000 0.000000 0.000000 0.000000 0.000000 0.000000 0.000000 0.000000 0.000000 -0.000000 -49.563990 -0.000000 0.000000 0.000000 -0.000000 0.000000 0.000000 0.000000 0.000000 0.000000 0.000000 -0.000000 -49.563990 -0.000000 0.000000 0.000000 -0.000000 0.000000 0.000000 0.000000 0.000000 0.000000
24.801169 85.173264 296.093772 -0.095006 -0.234980 52.176159 0.243872 0.069053 -52.176501 -0.000000 0.000000 0.000000 -0.000000 0.000000 0.000000 0.000000 0.000000 0.000000 -0.000000 0.000000 0.000000 -0.000000 0.000000 0.000000 -0.000000 0.000000 0.000000 -0.000000 0.000000 0.000000 0.000000 0.000000 0.000000 0.000000 0.000000 0.000000 -0.000000 0.000000 0.000000 -0.000000 0.000000 0.000000 -0.629988 1.641783 -0.393772 0.719728 -2.431732 0.774235 0.000000 0.000000 0.000000 0.000000 0.000000 0.000000 0.929467 0.823606 -52.130613 0.174766 -1.004398 -0.049697 -0.936877 -6.358721 4.215573 0.000000 0.000000 0.000000 -0.814798 2.229851 -52.213471 4.320982 -4.703754 -0.537241 -3.859593 9.273145 -1.819659 0.000000 0.000000 0.000000
24.772649 84.908918 296.381656 -0.141815 -0.475972 54.228880 0.469083 0.163162 -54.230137 -0.000000 0.000000 0.000000 -0.562769 0.945117 0.540551 0.000000 0.000000 0.000000 -0.000000 0.000000 0.000000 -0.000000 0.000000 0.000000 -0.000000 0.000000 0.000000 -0.000000 0.000000 0.000000 0.000000 0.000000 0.000000 0.000000 0.000000 0.000000 -0.000000 0.000000 0.000000 -0.000000 0.000000 0.000000 -1.398221 3.020569 -0.763609 1.389544 -4.324241 1.399657 0.000000 0.000000 0.000000 0.000000 0.000000 0.000000 1.824018 1.630912 -54.149153 1.656907 -2.000049 -0.171478 -2.572626 -12.064480 7.680892 0.000000 0.000000 0.000000 -1.278634 3.940396 -54.241707 7.350511 -8.163629 -0.832555 -7.383292 17.239459 -3.204418 0.000000 0.000000 0.000000
24.756810 84.733303 296.642445 -0.141175 -0.723912 55.840211 0.678296 0.289649 -55.842818 -0.000000 0.000000 0.000000 -0.787519 1.145175 0.721125 0.000000 0.000000 0.000000 -0.000000 0.000000 0.000000 -0.000000 0.000000 0.000000 -0.000000 0.000000 0.000000 -0.000000 0.000000 0.000000 0.000000 0.000000 0.000000 0.000000 0.000000 0.000000 -0.000000 0.000000 0.000000 -0.000000 0.000000 0.000000 -2.307038 4.110145 -1.105804 2.005810 -5.675914 1.867720 0.000000 0.000000 0.000000 0.000000 0.000000 0.000000 2.640806 2.427845 -55.738051 2.640396 -2.920638 -0.220683 -3.297751 -16.713369 9.983995 0.000000 0.000000 0.000000 -1.449425 4.984148 -55.788206 9.107661 -10.590847 -1.041684 -10.692107 24.020008 -4.149591 0.000000 0.000000 0.000000
24.753650 84.646419 296.876139 -0.093423 -0.979781 57.093418 0.873357 0.453830 -57.097676 -0.000000 0.000000 0.000000 -0.974521 1.167515 0.841837 0.000000 0.000000 0.000000 -0.000000 0.000000 0.000000 -0.000000 0.000000 0.000000 -0.000000 0.000000 0.000000 -0.000000 0.000000 0.000000 0.000000 0.000000 0.000000 0.000000 0.000000 0.000000 -0.000000 0.000000 0.000000 -0.000000 0.000000 0.000000 -3.355740 4.889642 -1.419537 2.557606 -6.481525 2.171219 0.000000 0.000000 0.000000 0.000000 0.000000 0.000000 3.342888 3.214016 -56.979827 3.725330 -3.743136 -0.244796 -3.916539 -20.047666 10.997977 0.000000 0.000000 0.000000 -1.370406 5.264838 -56.949229 9.584780 -12.133213 -1.249079 -13.834428 29.692078 -4.660723 0.000000 0.000000 0.000000
24.763171 84.648267 297.082737 0.001501 -1.244616 58.047053 1.055288 0.659915 -58.053114 0.465219 -1.007217 0.038828 -1.588667 2.020850 0.891549 0.000000 0.000000 0.000000 -0.464608 1.007499 -0.030653 -0.000000 0.000000 0.000000 -0.000000 0.000000 0.000000 -0.000000 0.000000 0.000000 0.000000 0.000000 0.000000 0.000000 0.000000 0.000000 -0.464608 1.007499 -0.030653 -0.000000 0.000000 0.000000 -4.540143 5.343891 -1.707109 3.028063 -6.733736 2.305309 0.000000 0.000000 0.000000 0.000000 0.000000 0.000000 3.900644 3.985450 -57.931064 4.906707 -4.439200 -0.246723 -4.596222 -21.939724 10.581529 0.000000 0.000000 0.000000 -1.073809 4.737804 -57.788167 8.778701 -12.884721 -1.486328 -16.791440 34.311666 -4.782401 0.000000 0.000000 0.000000
24.856471 84.744739 297.350104 0.178161 -1.593756 59.291113 0.526836 0.389144 -59.289864 0.629015 -0.498327 0.052740 -1.880860 1.976067 0.794725 0.000000 0.000000 0.000000 -0.740423 1.441042 -0.046036 -0.000000 0.000000 0.000000 -0.000000 0.000000 0.000000 -0.000000 0.000000 0.000000 0.000000 0.000000 0.000000 0.000000 0.000000 0.000000 -0.740423 1.441042 -0.046036 -0.000000 0.000000 0.000000 -5.365923 5.462964 -1.880192 2.877013 -6.596799 2.183788 0.000000 0.000000 0.000000 0.000000 0.000000 0.000000 4.514455 4.956787 -59.181747 6.861524 -4.962646 -0.261550 -6.022527 -22.166888 11.260498 0.000000 0.000000 0.000000 -0.411775 2.405259 -58.759425 5.260755 -12.349942 -1.904629 -21.563957 40.217787 -4.524554 0.000000 0.000000 0.000000
24.925952 84.978908 297.570835 0.361543 -1.941893 59.909010 0.515405 0.293337 -59.898301 0.735185 -0.646406 0.071857 -2.340654 2.053769 0.753462 0.000000 0.000000 0.000000 -1.099004 1.996596 -0.063000 -0.000000 0.000000 0.000000 -0.000000 0.000000 0.000000 -0.000000 0.000000 0.000000 0.000000 0.000000 0.000000 0.000000 0.000000 0.000000 -1.099004 1.996596 -0.063000 -0.000000 0.000000 0.000000 -6.005064 4.485485 -1.901466 1.875859 -5.456299 1.717780 0.000000 0.000000 0.000000 0.000000 0.000000 0.000000 5.077315 5.957524 -59.814281 8.881078 -6.307506 -0.110045 -7.519646 -22.276901 18.242873 0.000000 0.000000 0.000000 0.527932 -0.625682 -59.143531 0.441382 -11.021043 -2.090022 -23.878936 44.092215 -4.572974 0.000000 0.000000 0.000000
25.119126 85.073526 297.943388 0.721955 -2.500433 59.359775 0.483274 0.194190 -59.329430 0.761176 -0.694282 0.092362 -3.146444 2.375638 0.902206 0.000000 0.000000 0.000000 -0.761776 1.998917 0.153484 -0.793710 0.685888 -0.261252 -0.065637 0.952039 0.204902 0.062241 -0.952267 -0.203839 0.000000 0.000000 0.000000 0.000000 0.000000 0.000000 -1.558136 2.682484 -0.079993 -0.000000 0.000000 0.000000 -7.520732 3.757239 -2.139108 1.741801 -4.266476 1.465487 0.000000 0.000000 0.000000 0.000000 0.000000 0.000000 5.728066 7.348813 -59.309741 10.474023 -8.267152 0.189398 -8.417004 -22.407428 22.681461 0.000000 0.000000 0.000000 1.969878 -3.045000 -58.558541 -4.439732 -9.819101 -1.867093 -24.760955 44.610041 -4.165910 0.000000 0.000000 0.000000
